<?xml version="1.0" encoding="iso-8859-1"?>
<!-- Generator: Adobe Illustrator 19.0.0, SVG Export Plug-In . SVG Version: 6.00 Build 0)  -->
<svg version="1.1" id="Layer_1" xmlns="http://www.w3.org/2000/svg" xmlns:xlink="http://www.w3.org/1999/xlink" x="0px" y="0px"
	 viewBox="0 0 512 512" style="enable-background:new 0 0 512 512;" xml:space="preserve">
<circle style="fill:#B9EAFF;" cx="256" cy="256" r="256"/>
<path style="fill:#35CCFF;" d="M132.863,105.82l70.575,70.575l-116.176-0.507l25.653,24.947l-4.68,3.238l148.69,148.689
	l-25.553,97.583l26.333,26.333l2.639,35.266C399.724,509.623,512,395.933,512,256c0-6.037-0.224-12.021-0.636-17.953L297.046,23.73
	L132.863,105.82z"/>
<path style="fill:#AE4E32;" d="M416.077,179.445H95.923c-6.801,0-12.314-5.513-12.314-12.314l0,0
	c0-6.801,5.513-12.314,12.314-12.314h320.153c6.801,0,12.314,5.513,12.314,12.314l0,0
	C428.391,173.933,422.878,179.445,416.077,179.445z"/>
<path style="fill:#823220;" d="M416.077,154.819H255.426v24.628h160.651c6.801,0,12.314-5.513,12.314-12.314l0,0
	C428.391,160.332,422.878,154.819,416.077,154.819z"/>
<path style="fill:#AE4E32;" d="M254.85,236.79c-6.801,0-12.314,5.513-12.314,12.314v262.544C246.994,511.879,251.483,512,256,512
	c3.743,0,7.461-0.098,11.164-0.257V249.104C267.164,242.304,261.651,236.79,254.85,236.79z"/>
<path style="fill:#823220;" d="M255.426,236.82v275.172c0.191,0,0.383,0.007,0.574,0.007c3.743,0,7.461-0.098,11.164-0.257V249.104
	C267.164,242.498,261.958,237.123,255.426,236.82z"/>
<path style="fill:#FF6838;" d="M231.372,154.819H108.237v49.254h73.881v147.763l49.254,98.509h49.254l49.254-98.509V204.072h73.881
	v-49.254H280.624C280.628,154.819,260.477,176.957,231.372,154.819z"/>
<path style="fill:#AE4E32;" d="M280.628,154.819c0,0-9.637,10.576-25.202,9.79v285.737h25.202l49.254-98.509V204.074h73.881v-49.255
	H280.628z"/>
<polygon style="fill:#0074A3;" points="182.119,228.7 182.119,351.835 231.372,450.344 280.628,450.344 329.881,351.835 
	329.881,228.7 305.254,228.7 305.254,154.819 280.628,154.819 280.628,228.7 231.372,228.7 231.372,154.819 206.746,154.819 
	206.746,228.7 "/>
<polygon style="fill:#005C83;" points="305.254,228.7 305.254,154.819 280.628,154.819 280.628,228.7 255.426,228.7 
	255.426,450.344 280.628,450.344 329.881,351.837 329.881,228.7 "/>
<path style="fill:#FFECB3;" d="M203.76,99.569c0-32.458,23.388-58.77,52.24-58.77s52.24,26.312,52.24,58.77
	S284.851,171.82,256,171.82C227.149,171.82,203.76,132.027,203.76,99.569z"/>
<path style="fill:#FFD863;" d="M256,40.8c-0.193,0-0.383,0.014-0.574,0.017v130.981c0.191,0.003,0.381,0.024,0.574,0.024
	c28.851,0,52.24-39.793,52.24-72.252C308.24,67.112,284.851,40.8,256,40.8z"/>
<polygon style="fill:#FFB344;" points="307.307,64.774 297.046,23.73 214.954,23.73 204.693,64.774 "/>
<g>
	<polygon style="fill:#FF9451;" points="297.046,23.73 255.426,23.73 255.426,64.774 307.307,64.774 	"/>
	<polygon style="fill:#FF9451;" points="307.307,64.774 379.137,105.82 132.863,105.82 204.693,64.774 	"/>
</g>
<polygon style="fill:#F7674F;" points="307.307,64.774 255.426,64.774 255.426,105.82 379.137,105.82 "/>
<circle style="fill:#175D76;" cx="231.745" cy="121.242" r="4.851"/>
<circle style="fill:#00263F;" cx="280.255" cy="121.242" r="4.851"/>
<path style="fill:#175D76;" d="M256,154.793c-6.777,0-12.288-5.511-12.288-12.286c0-1.429,1.158-2.586,2.586-2.586
	s2.586,1.157,2.586,2.586c0,3.924,3.193,7.115,7.116,7.115s7.116-3.193,7.116-7.115c0-1.429,1.158-2.586,2.586-2.586
	s2.586,1.157,2.586,2.586C268.288,149.28,262.777,154.793,256,154.793z"/>
<path style="fill:#00263F;" d="M265.702,139.919c-1.427,0-2.586,1.157-2.586,2.586c0,3.924-3.193,7.115-7.116,7.115
	c-0.197,0-0.381-0.041-0.574-0.059v5.201c0.191,0.009,0.381,0.029,0.574,0.029c6.777,0,12.288-5.511,12.288-12.286
	C268.288,141.076,267.13,139.919,265.702,139.919z"/>
<g>
</g>
<g>
</g>
<g>
</g>
<g>
</g>
<g>
</g>
<g>
</g>
<g>
</g>
<g>
</g>
<g>
</g>
<g>
</g>
<g>
</g>
<g>
</g>
<g>
</g>
<g>
</g>
<g>
</g>
</svg>
